<svg xmlns="http://www.w3.org/2000/svg" width="12" height="12" viewBox="0 0 12 12" fill="inherit">
  <circle cx="6" cy="6" r="6" fill="var(--token-error-500)"/>
  <path d="M3.7177 4.28558C3.70094 4.26925 3.68563 4.25149 3.67194 4.2325C3.54146 4.05148 3.58241 3.79897 3.76342 3.66847C3.9343 3.55243 4.1643 3.57853 4.30483 3.7299L7.11042 6.5355L7.06328 6.41122C7.03768 6.33134 7.02467 6.24796 7.02471 6.16408L7.02757 4.58415C7.02285 4.38079 7.16514 4.20354 7.3647 4.16417C7.38211 4.16186 7.39965 4.16069 7.41721 4.16067C7.64037 4.16036 7.82151 4.34101 7.82182 4.56415L7.82182 7.42162C7.8217 7.64477 7.64071 7.82557 7.41755 7.82544L4.56053 7.82544C4.54251 7.82509 4.52452 7.82353 4.50669 7.82078C4.28616 7.78668 4.13503 7.58027 4.16912 7.35975C4.20849 7.16018 4.38574 7.0179 4.5891 7.02262L6.16904 7.02262C6.26298 7.02219 6.35628 7.03814 6.44474 7.06976L6.53473 7.10262L3.7177 4.28558Z" fill="#131316"/>
</svg>