<svg xmlns="http://www.w3.org/2000/svg" width="12" height="12" viewBox="0 0 12 12" fill="none">
  <circle cx="6" cy="6" r="6" fill="var(--token-success-500)"/>
  <path d="M4.5237 8.03686C4.54269 8.02317 4.56045 8.00786 4.57678 7.9911L7.39381 5.17407L7.36096 5.26406C7.32933 5.35252 7.31339 5.44582 7.31382 5.53977L7.31382 7.1197C7.30909 7.32306 7.45138 7.50031 7.65095 7.53968C7.87147 7.57377 8.07788 7.42264 8.11198 7.20211C8.11473 7.18429 8.11629 7.1663 8.11664 7.14827L8.11664 4.29125C8.11677 4.0681 7.93597 3.8871 7.71282 3.88698C7.71268 3.88698 7.71251 3.88698 7.71237 3.88698L4.85535 3.88698C4.63221 3.88729 4.45156 4.06843 4.45187 4.29159C4.45189 4.30915 4.45306 4.32669 4.45537 4.3441C4.49474 4.54366 4.67199 4.68595 4.87535 4.68123L6.45528 4.68409C6.53916 4.68413 6.62254 4.67112 6.70241 4.64552L6.8267 4.59838L4.0211 7.40397C3.86973 7.5445 3.84363 7.7745 3.95967 7.94538C4.09017 8.12639 4.34268 8.16734 4.5237 8.03686Z" fill="#17181C"/>
</svg>