<svg xmlns="http://www.w3.org/2000/svg" width="216" height="216" viewBox="0 0 216 216" fill="none">
  <path d="M108 23.6251V118.125H3.8475C3.54375 114.784 3.375 111.409 3.375 108C3.375 80.2518 14.398 53.6401 34.019 34.0191C53.6399 14.3981 80.2517 3.37512 108 3.37512V23.6251Z" fill="#0254F8"/>
  <path d="M20.4863 165.375H195.514C189.653 174.284 182.472 182.25 174.218 189H41.7825C33.5276 182.25 26.3468 174.284 20.4863 165.375Z" fill="#F0F0E6"/>
  <path d="M108 118.125H212.152C211.368 126.17 209.657 134.097 207.056 141.75H8.94372C6.34249 134.097 4.63244 126.17 3.84747 118.125H108Z" fill="#EAFEFF"/>
  <path d="M211.748 94.5H108V70.875H205.841C208.744 78.4866 210.727 86.4179 211.748 94.5Z" fill="#EAFEFF"/>
  <path d="M192.915 46.8451L192.375 47.2501H108V23.6251H168.75L169.155 23.0851C178.275 29.7071 186.293 37.7256 192.915 46.8451Z" fill="#EAFEFF"/>
  <path d="M41.7825 189H174.218C155.53 204.276 132.136 212.621 108 212.621C83.8637 212.621 60.4696 204.276 41.7825 189Z" fill="#EE0A00"/>
  <path d="M8.94373 141.75H207.056C204.22 150.08 200.342 158.018 195.514 165.375H20.4862C15.6579 158.018 11.7797 150.08 8.94373 141.75Z" fill="#EE0A00"/>
  <path d="M212.625 108C212.625 111.409 212.456 114.784 212.153 118.125H108V94.5H211.748C212.33 98.9765 212.623 103.486 212.625 108Z" fill="#EE0A00"/>
  <path d="M205.841 70.8751H108V47.2501H192.375L192.915 46.8451C198.251 54.2584 202.597 62.3367 205.841 70.8751Z" fill="#EE0A00"/>
  <path d="M169.155 23.0851L168.75 23.6251H108V3.37506C129.95 3.35131 151.35 10.2482 169.155 23.0851Z" fill="#EE0A00"/>
  <path d="M30.375 94.5C30.3672 77.6266 34.4462 61.0022 42.2633 46.0487C50.0804 31.0952 61.4029 18.2575 75.2625 8.6333C54.3497 15.5273 36.1443 28.8421 23.2375 46.6826C10.3306 64.5231 3.38006 85.9803 3.375 108C3.375 111.409 3.54375 114.784 3.8475 118.125H33.075C31.2832 110.378 30.3774 102.452 30.375 94.5Z" fill="#094EDA"/>
  <path d="M58.05 165.375H20.4863C26.3468 174.284 33.5276 182.25 41.7825 189H90.0653C77.9849 183.238 67.1179 175.219 58.05 165.375Z" fill="#C7CCC6"/>
  <path d="M33.075 118.125H3.84747C4.63244 126.17 6.34249 134.097 8.94372 141.75H41.661C37.8535 134.251 34.9704 126.318 33.075 118.125Z" fill="#BFCCD6"/>
  <path d="M90.0653 189H41.7825C59.4009 203.402 81.2345 211.668 103.974 212.544C126.713 213.42 149.118 206.858 167.791 193.853C142.222 202.289 114.386 200.551 90.0653 189Z" fill="#C60700"/>
  <path d="M41.661 141.75H8.94373C11.7797 150.08 15.6579 158.018 20.4862 165.375H58.05C51.5282 158.29 46.0134 150.34 41.661 141.75Z" fill="#C60700"/>
  <path d="M84.375 30.375L85.4179 32.5957L87.75 33.075L86.0625 34.6815L86.4 37.125L84.375 35.9707L82.35 37.125L82.6875 34.6815L81 33.075L83.3321 32.5957L84.375 30.375Z" fill="white"/>
  <path d="M64.125 30.375L65.1679 32.5957L67.5 33.075L65.8125 34.6815L66.15 37.125L64.125 35.9707L62.1 37.125L62.4375 34.6815L60.75 33.075L63.0821 32.5957L64.125 30.375Z" fill="white"/>
  <path d="M43.875 30.375L44.9179 32.5957L47.25 33.075L45.5625 34.6815L45.9 37.125L43.875 35.9707L41.85 37.125L42.1875 34.6815L40.5 33.075L42.8321 32.5957L43.875 30.375Z" fill="#C7CCC6"/>
  <path d="M94.5 43.875L95.5429 46.0957L97.875 46.575L96.1875 48.1815L96.525 50.625L94.5 49.4707L92.475 50.625L92.8125 48.1815L91.125 46.575L93.4571 46.0957L94.5 43.875Z" fill="white"/>
  <path d="M74.25 43.875L75.2929 46.0957L77.625 46.575L75.9375 48.1815L76.275 50.625L74.25 49.4707L72.225 50.625L72.5625 48.1815L70.875 46.575L73.2071 46.0957L74.25 43.875Z" fill="white"/>
  <path d="M54 43.875L55.0429 46.0957L57.375 46.575L55.6875 48.1815L56.025 50.625L54 49.4707L51.975 50.625L52.3125 48.1815L50.625 46.575L52.9571 46.0957L54 43.875Z" fill="white"/>
  <path d="M33.75 43.875L34.7929 46.0957L37.125 46.575L35.4375 48.1815L35.775 50.625L33.75 49.4707L31.725 50.625L32.0625 48.1815L30.375 46.575L32.7071 46.0957L33.75 43.875Z" fill="#C7CCC6"/>
  <path d="M84.375 57.3751L85.4179 59.5959L87.75 60.0751L86.0625 61.6816L86.4 64.1251L84.375 62.9709L82.35 64.1251L82.6875 61.6816L81 60.0751L83.3321 59.5959L84.375 57.3751Z" fill="white"/>
  <path d="M64.125 57.3751L65.1679 59.5959L67.5 60.0751L65.8125 61.6816L66.15 64.1251L64.125 62.9709L62.1 64.1251L62.4375 61.6816L60.75 60.0751L63.0821 59.5959L64.125 57.3751Z" fill="white"/>
  <path d="M43.875 57.3751L44.9179 59.5959L47.25 60.0751L45.5625 61.6816L45.9 64.1251L43.875 62.9709L41.85 64.1251L42.1875 61.6816L40.5 60.0751L42.8321 59.5959L43.875 57.3751Z" fill="white"/>
  <path d="M23.625 57.3751L24.6679 59.5959L27 60.0751L25.3125 61.6816L25.65 64.1251L23.625 62.9709L21.6 64.1251L21.9375 61.6816L20.25 60.0751L22.5821 59.5959L23.625 57.3751Z" fill="#C7CCC6"/>
  <path d="M94.5 70.875L95.5429 73.0958L97.875 73.575L96.1875 75.1815L96.525 77.625L94.5 76.4708L92.475 77.625L92.8125 75.1815L91.125 73.575L93.4571 73.0958L94.5 70.875Z" fill="white"/>
  <path d="M74.25 70.875L75.2929 73.0958L77.625 73.575L75.9375 75.1815L76.275 77.625L74.25 76.4708L72.225 77.625L72.5625 75.1815L70.875 73.575L73.2071 73.0958L74.25 70.875Z" fill="white"/>
  <path d="M54 70.875L55.0429 73.0958L57.375 73.575L55.6875 75.1815L56.025 77.625L54 76.4708L51.975 77.625L52.3125 75.1815L50.625 73.575L52.9571 73.0958L54 70.875Z" fill="white"/>
  <path d="M33.75 70.875L34.7929 73.0958L37.125 73.575L35.4375 75.1815L35.775 77.625L33.75 76.4708L31.725 77.625L32.0625 75.1815L30.375 73.575L32.7071 73.0958L33.75 70.875Z" fill="white"/>
  <path d="M13.5 70.875L14.5429 73.0958L16.875 73.575L15.1875 75.1815L15.525 77.625L13.5 76.4708L11.475 77.625L11.8125 75.1815L10.125 73.575L12.4571 73.0958L13.5 70.875Z" fill="#C7CCC6"/>
  <path d="M84.375 84.375L85.4179 86.5958L87.75 87.075L86.0625 88.6815L86.4 91.125L84.375 89.9708L82.35 91.125L82.6875 88.6815L81 87.075L83.3321 86.5958L84.375 84.375Z" fill="white"/>
  <path d="M64.125 84.375L65.1679 86.5958L67.5 87.075L65.8125 88.6815L66.15 91.125L64.125 89.9708L62.1 91.125L62.4375 88.6815L60.75 87.075L63.0821 86.5958L64.125 84.375Z" fill="white"/>
  <path d="M43.875 84.375L44.9179 86.5958L47.25 87.075L45.5625 88.6815L45.9 91.125L43.875 89.9708L41.85 91.125L42.1875 88.6815L40.5 87.075L42.8321 86.5958L43.875 84.375Z" fill="white"/>
  <path d="M23.625 84.375L24.6679 86.5958L27 87.075L25.3125 88.6815L25.65 91.125L23.625 89.9708L21.6 91.125L21.9375 88.6815L20.25 87.075L22.5821 86.5958L23.625 84.375Z" fill="#C7CCC6"/>
  <path d="M94.5 97.875L95.5429 100.096L97.875 100.575L96.1875 102.181L96.525 104.625L94.5 103.471L92.475 104.625L92.8125 102.181L91.125 100.575L93.4571 100.096L94.5 97.875Z" fill="white"/>
  <path d="M74.25 97.875L75.2929 100.096L77.625 100.575L75.9375 102.181L76.275 104.625L74.25 103.471L72.225 104.625L72.5625 102.181L70.875 100.575L73.2071 100.096L74.25 97.875Z" fill="white"/>
  <path d="M54 97.875L55.0429 100.096L57.375 100.575L55.6875 102.181L56.025 104.625L54 103.471L51.975 104.625L52.3125 102.181L50.625 100.575L52.9571 100.096L54 97.875Z" fill="white"/>
  <path d="M33.75 97.875L34.7929 100.096L37.125 100.575L35.4375 102.181L35.775 104.625L33.75 103.471L31.725 104.625L32.0625 102.181L30.375 100.575L32.7071 100.096L33.75 97.875Z" fill="white"/>
  <path d="M13.5 97.875L14.5429 100.096L16.875 100.575L15.1875 102.181L15.525 104.625L13.5 103.471L11.475 104.625L11.8125 102.181L10.125 100.575L12.4571 100.096L13.5 97.875Z" fill="#C7CCC6"/>
  <path d="M94.5 16.875L95.5429 19.0957L97.875 19.575L96.1875 21.1815L96.525 23.625L94.5 22.4707L92.475 23.625L92.8125 21.1815L91.125 19.575L93.4571 19.0957L94.5 16.875Z" fill="white"/>
  <path d="M74.25 16.875L75.2929 19.0957L77.625 19.575L75.9375 21.1815L76.275 23.625L74.25 22.4707L72.225 23.625L72.5625 21.1815L70.875 19.575L73.2071 19.0957L74.25 16.875Z" fill="white"/>
  <path d="M52.981 19.0013L52.7917 19.1253L52.9386 19.0927L52.981 19.0013Z" fill="#0254F8"/>
  <path d="M51.975 23.6251L54 22.4708L56.025 23.6251L55.6875 21.1816L57.375 19.5751L55.0429 19.0958L54.5569 18.0597C54.0337 18.3702 53.5174 18.6841 53.001 19.0013L52.9571 19.0958L52.8052 19.1296C52.272 19.4671 51.7489 19.8046 51.2224 20.1421L52.3125 21.1816L51.975 23.6251Z" fill="#C7CCC6"/>
  <path d="M20.4863 165.375C22.5067 168.398 24.6808 171.316 27 174.116V165.375H20.4863Z" fill="#8A0200"/>
  <path d="M64.125 118.125V104.625H67.5V94.5H70.875C71.0046 91.0644 71.5832 87.6605 72.5963 84.375C74.3378 78.1782 77.5432 72.4907 81.9426 67.7919C86.3419 63.093 91.8062 59.5204 97.875 57.375V27H84.375V47.25H81V57.375C74.9312 59.5204 69.4669 63.093 65.0676 67.7919C60.6682 72.4907 57.4628 78.1782 55.7213 84.375C54.7082 87.6605 54.1296 91.0644 54 94.5H50.625V104.625H47.25V118.125H64.125Z" fill="#0134A1"/>
  <path d="M60.75 128.25H54V118.125H47.25H37.125V128.25H43.875V141.75H60.75V128.25Z" fill="#989C97"/>
  <path d="M60.75 155.25V141.75H43.875V155.25H37.125V165.375H50.625H54V155.25H60.75Z" fill="#8A0200"/>
  <path d="M94.5 43.875L95.5429 46.0957L97.875 46.575L96.1875 48.1815L96.525 50.625L94.5 49.4707L92.475 50.625L92.8125 48.1815L91.125 46.575L93.4571 46.0957L94.5 43.875Z" fill="#0144D4"/>
  <path d="M84.375 57.3751L85.4179 59.5959L87.75 60.0751L86.0625 61.6816L86.4 64.1251L84.375 62.9709L82.35 64.1251L82.6875 61.6816L81 60.0751L83.3321 59.5959L84.375 57.3751Z" fill="#0144D4"/>
  <path d="M74.25 70.875L75.2929 73.0958L77.625 73.575L75.9375 75.1815L76.275 77.625L74.25 76.4708L72.225 77.625L72.5625 75.1815L70.875 73.575L73.2071 73.0958L74.25 70.875Z" fill="#0144D4"/>
  <path d="M64.125 84.375L65.1679 86.5958L67.5 87.075L65.8125 88.6815L66.15 91.125L64.125 89.9708L62.1 91.125L62.4375 88.6815L60.75 87.075L63.0821 86.5958L64.125 84.375Z" fill="#0144D4"/>
  <path d="M54 97.875L55.0429 100.096L57.375 100.575L55.6875 102.181L56.025 104.625L54 103.471L51.975 104.625L52.3125 102.181L50.625 100.575L52.9571 100.096L54 97.875Z" fill="#0144D4"/>
  <path d="M52.981 19.0013L52.7917 19.1253L52.9386 19.0927L52.981 19.0013Z" fill="#0254F8"/>
  <path d="M83.3321 32.5957L81 33.075L82.6875 34.6815L82.35 37.125L84.375 35.9707V30.375L83.3321 32.5957Z" fill="white"/>
  <path d="M92.8125 21.1815L91.125 19.575L92.8125 19.2274V13.5H89.4375V27H92.8125V23.4326L92.475 23.625L92.8125 21.1815Z" fill="#0134A1"/>
  <path d="M92.8125 21.1815V19.2274L91.125 19.575L92.8125 21.1815Z" fill="#0144D4"/>
  <path d="M92.475 23.625L92.8125 23.4326V21.1815L92.475 23.625Z" fill="#0144D4"/>
  <path d="M86.0625 34.6815L87.75 33.075L85.4179 32.5957L84.375 30.375V35.9707L86.4 37.125L86.0625 34.6815Z" fill="#0144D4"/>
  <path d="M165.375 165.375H189V175.5H165.375V165.375Z" fill="#E0E6DF"/>
  <path d="M189 185.625V212.625H165.375V202.5H158.625V175.5H165.375H189V185.625Z" fill="#E0E6DF"/>
  <path d="M189 185.625H212.625V212.625H189V185.625Z" fill="#B4B8B3"/>
  <path d="M27 165.375H50.625V175.5H27V165.375Z" fill="#B4B8B3"/>
  <path d="M3.375 185.625H27V212.625H3.375V185.625Z" fill="#989C97"/>
  <path d="M50.625 202.5V212.625H27V185.625V175.5H50.625H57.375V202.5H50.625Z" fill="#B4B8B3"/>
  <path d="M148.5 94.5V104.625H67.5V94.5H70.875H145.125H148.5Z" fill="#E0E6DF"/>
  <path d="M67.5 104.625H148.5H151.875V114.75V118.125H64.125V114.75V104.625H67.5Z" fill="#E0E6DF"/>
  <path d="M145.125 94.5H70.875C71.0046 91.0644 71.5832 87.6605 72.5963 84.375H143.404C144.417 87.6605 144.995 91.0644 145.125 94.5Z" fill="#B4B8B3"/>
  <path d="M143.404 84.3751H72.5963C74.3378 78.1783 77.5432 72.4909 81.9426 67.792C86.3419 63.0931 91.8062 59.5205 97.875 57.3751H118.125C124.194 59.5205 129.658 63.0931 134.057 67.792C138.457 72.4909 141.662 78.1783 143.404 84.3751Z" fill="#FFFEF9"/>
  <path d="M118.125 47.2501V57.3751H97.875V47.2501H101.25H114.75H118.125Z" fill="#FFFEF9"/>
  <path d="M114.75 27V47.25H101.25V27H108H114.75Z" fill="#FFFEF9"/>
  <path d="M107.413 77.6251C105.259 77.6255 103.16 76.9387 101.423 75.6647C99.6862 74.3908 98.4007 72.5959 97.7536 70.5412C97.1066 68.4865 97.1318 66.2789 97.8255 64.2395C98.5193 62.2 99.8454 60.435 101.611 59.201C102.578 58.5323 103.585 57.9225 104.625 57.3751H97.875C91.8062 59.5205 86.3419 63.0931 81.9426 67.792C77.5432 72.4909 74.3378 78.1783 72.5963 84.3751H143.404C142.714 82.0577 141.837 79.8002 140.781 77.6251H107.413Z" fill="#E0E6DF"/>
  <path d="M54 118.125H162V128.25H54V118.125Z" fill="#FFFEF9"/>
  <path d="M54 155.25H162V165.375H54V155.25Z" fill="#FFFEF9"/>
  <path d="M60.75 128.25H155.25V155.25H60.75V128.25Z" fill="#989C97"/>
  <path d="M50.625 165.375H165.375V175.5H50.625V165.375Z" fill="#FFFEF9"/>
  <path d="M50.625 202.5H165.375V212.625H50.625V202.5Z" fill="#FFFEF9"/>
  <path d="M57.375 175.5H158.625V202.5H57.375V175.5Z" fill="#989C97"/>
  <path d="M54 118.125V128.25H162V124.875H67.5C65.7098 124.875 63.9929 124.164 62.727 122.898C61.4612 121.632 60.75 119.915 60.75 118.125H54Z" fill="#E0E6DF"/>
  <path d="M54 155.25V165.375H162V162H67.5C65.7098 162 63.9929 161.289 62.727 160.023C61.4612 158.757 60.75 157.04 60.75 155.25H54Z" fill="#E0E6DF"/>
  <path d="M155.25 128.25V138.375H97.875C93.3995 138.375 89.1073 140.153 85.9426 143.318C82.7779 146.482 81 150.775 81 155.25H60.75V128.25H155.25Z" fill="#5B5E5B"/>
  <path d="M70.875 128.25H77.625V155.25H70.875V128.25Z" fill="#E0E6DF"/>
  <path d="M57.375 128.25H64.125V155.25H57.375V128.25Z" fill="#E0E6DF"/>
  <path d="M84.375 128.25H91.125V155.25H84.375V128.25Z" fill="#FFFEF9"/>
  <path d="M97.875 128.25H104.625V155.25H97.875V128.25Z" fill="#FFFEF9"/>
  <path d="M111.375 128.25H118.125V155.25H111.375V128.25Z" fill="#FFFEF9"/>
  <path d="M124.875 128.25H131.625V155.25H124.875V128.25Z" fill="#FFFEF9"/>
  <path d="M138.375 128.25H145.125V155.25H138.375V128.25Z" fill="#FFFEF9"/>
  <path d="M151.875 128.25H158.625V155.25H151.875V128.25Z" fill="#FFFEF9"/>
  <path d="M64.125 128.25H57.375V155.25H60.75V131.625H64.125V128.25Z" fill="#B4B8B3"/>
  <path d="M77.625 128.25H70.875V155.25H74.25V131.625H77.625V128.25Z" fill="#B4B8B3"/>
  <path d="M91.125 128.25H84.375V155.25H87.75V131.625H91.125V128.25Z" fill="#B4B8B3"/>
  <path d="M104.625 128.25H97.875V155.25H101.25V131.625H104.625V128.25Z" fill="#B4B8B3"/>
  <path d="M118.125 128.25H111.375V155.25H114.75V131.625H118.125V128.25Z" fill="#B4B8B3"/>
  <path d="M131.625 128.25H124.875V155.25H128.25V131.625H131.625V128.25Z" fill="#B4B8B3"/>
  <path d="M145.125 128.25H138.375V155.25H141.75V131.625H145.125V128.25Z" fill="#B4B8B3"/>
  <path d="M158.625 128.25H151.875V155.25H155.25V131.625H158.625V128.25Z" fill="#B4B8B3"/>
  <path d="M158.625 175.5H57.375V202.5H81C81 198.024 82.7779 193.732 85.9426 190.568C89.1073 187.403 93.3995 185.625 97.875 185.625H158.625V175.5Z" fill="#5B5E5B"/>
  <path d="M54 175.5H60.75V202.5H54V175.5Z" fill="#E0E6DF"/>
  <path d="M67.5 175.5H74.25V202.5H67.5V175.5Z" fill="#E0E6DF"/>
  <path d="M84.375 175.5H91.125V202.5H84.375V175.5Z" fill="#FFFEF9"/>
  <path d="M97.875 175.5H104.625V202.5H97.875V175.5Z" fill="#FFFEF9"/>
  <path d="M111.375 175.5H118.125V202.5H111.375V175.5Z" fill="#FFFEF9"/>
  <path d="M124.875 175.5H131.625V202.5H124.875V175.5Z" fill="#FFFEF9"/>
  <path d="M141.75 175.5H148.5V202.5H141.75V175.5Z" fill="#FFFEF9"/>
  <path d="M155.25 175.5H162V202.5H155.25V175.5Z" fill="#FFFEF9"/>
  <path d="M60.75 175.5H54V202.5H57.375V178.875H60.75V175.5Z" fill="#B4B8B3"/>
  <path d="M74.25 175.5H67.5V202.5H70.875V178.875H74.25V175.5Z" fill="#B4B8B3"/>
  <path d="M91.125 175.5H84.375V202.5H87.75V178.875H91.125V175.5Z" fill="#B4B8B3"/>
  <path d="M104.625 175.5H97.875V202.5H101.25V178.875H104.625V175.5Z" fill="#B4B8B3"/>
  <path d="M118.125 175.5H111.375V202.5H114.75V178.875H118.125V175.5Z" fill="#B4B8B3"/>
  <path d="M131.625 175.5H124.875V202.5H128.25V178.875H131.625V175.5Z" fill="#B4B8B3"/>
  <path d="M148.5 175.5H141.75V202.5H145.125V178.875H148.5V175.5Z" fill="#B4B8B3"/>
  <path d="M162 175.5H155.25V202.5H158.625V178.875H162V175.5Z" fill="#B4B8B3"/>
  <path d="M165.375 165.375V175.5H189V172.125H172.125C171.23 172.125 170.371 171.769 169.739 171.136C169.106 170.504 168.75 169.645 168.75 168.75V165.375H165.375Z" fill="#B4B8B3"/>
  <path d="M189 185.625V212.625H195.75V199.125C195.75 197.335 196.461 195.618 197.727 194.352C198.993 193.086 200.71 192.375 202.5 192.375H212.625V185.625H189Z" fill="#989C97"/>
  <path d="M189 178.875V175.5H168.75H162V202.5H165.375V212.625H175.5V202.5H168.75V178.875H189Z" fill="#989C97"/>
  <path d="M172.125 182.25H178.875V189H172.125V182.25Z" fill="#7C807B"/>
  <path d="M172.125 195.75V202.5H175.5V209.25H178.875V202.5V195.75H172.125Z" fill="#7C807B"/>
  <path d="M172.125 202.5H175.5V209.25H172.125V202.5Z" fill="#686B68"/>
  <path d="M50.625 165.375V175.5H27V172.125H43.875C44.7701 172.125 45.6285 171.769 46.2615 171.136C46.8944 170.504 47.25 169.645 47.25 168.75V165.375H50.625Z" fill="#989C97"/>
  <path d="M27 185.625V212.625H20.25V199.125C20.25 197.335 19.5388 195.618 18.273 194.352C17.0071 193.086 15.2902 192.375 13.5 192.375H3.375V185.625H27Z" fill="#5B5E5B"/>
  <path d="M27 178.875V175.5H47.25H54V202.5H50.625V212.625H40.5V202.5H47.25V178.875H27Z" fill="#6D706D"/>
  <path d="M37.125 182.25H43.875V189H37.125V182.25Z" fill="#6D706D"/>
  <path d="M43.875 195.75V202.5H40.5V209.25H37.125V202.5V195.75H43.875Z" fill="#6D706D"/>
  <path d="M40.5 202.5H43.875V209.25H40.5V202.5Z" fill="#5B5E5B"/>
  <path d="M50.625 202.5V212.625H165.375V209.25H60.75V202.5H50.625Z" fill="#E0E6DF"/>
  <path d="M50.625 165.375V175.5H165.375V172.125H60.75V165.375H50.625Z" fill="#E0E6DF"/>
  <path d="M50.625 205.875H165.375V209.25H50.625V205.875Z" fill="#989C97"/>
  <path d="M50.625 168.75H165.375V172.125H50.625V168.75Z" fill="#989C97"/>
  <path d="M50.625 168.75H60.75V172.125H50.625V168.75Z" fill="#5B5E5B"/>
  <path d="M50.625 205.875H60.75V209.25H50.625V205.875Z" fill="#5B5E5B"/>
  <path d="M106.312 10.125H109.688V27H106.312V10.125Z" fill="#FFFEF9"/>
  <path d="M101.25 33.75V47.25H114.75V43.875H111.375C109.585 43.875 107.868 43.1638 106.602 41.898C105.336 40.6321 104.625 38.9152 104.625 37.125V33.75H101.25Z" fill="#B4B8B3"/>
  <path d="M97.875 47.2501V57.3751H118.125V54.0001H108C106.21 54.0001 104.493 53.289 103.227 52.0231C101.961 50.7572 101.25 49.0403 101.25 47.2501H97.875Z" fill="#B4B8B3"/>
  <path d="M102.938 33.75H106.312V47.25H102.938V33.75Z" fill="#5B5E5B"/>
  <path d="M109.688 33.75H113.062V47.25H109.688V33.75Z" fill="#5B5E5B"/>
  <path d="M144.841 91.125H87.75C85.9598 91.125 84.2429 90.4138 82.977 89.148C81.7112 87.8821 81 86.1652 81 84.375H72.5963C71.5832 87.6605 71.0046 91.0644 70.875 94.5H145.125C145.093 93.3706 144.998 92.2439 144.841 91.125Z" fill="#989C97"/>
  <path d="M67.5 94.5V104.625H148.5V101.25H81C79.2098 101.25 77.4929 100.539 76.227 99.273C74.9612 98.0071 74.25 96.2902 74.25 94.5H67.5Z" fill="#B4B8B3"/>
  <path d="M64.125 104.625V118.125H151.875V114.75H77.625C75.8348 114.75 74.1179 114.039 72.852 112.773C71.5862 111.507 70.875 109.79 70.875 108V104.625H64.125Z" fill="#B4B8B3"/>
  <path d="M69.1875 108H72.5625V114.75H69.1875V108Z" fill="#5B5E5B"/>
  <path d="M75.9375 108H79.3125V114.75H75.9375V108Z" fill="#5B5E5B"/>
  <path d="M82.6875 108H86.0625V114.75H82.6875V108Z" fill="#5B5E5B"/>
  <path d="M89.4375 108H92.8125V114.75H89.4375V108Z" fill="#5B5E5B"/>
  <path d="M96.1875 108H99.5625V114.75H96.1875V108Z" fill="#5B5E5B"/>
  <path d="M102.938 108H106.312V114.75H102.938V108Z" fill="#5B5E5B"/>
  <path d="M109.688 108H113.062V114.75H109.688V108Z" fill="#5B5E5B"/>
  <path d="M116.438 108H119.812V114.75H116.438V108Z" fill="#5B5E5B"/>
  <path d="M123.188 108H126.562V114.75H123.188V108Z" fill="#5B5E5B"/>
  <path d="M129.938 108H133.312V114.75H129.938V108Z" fill="#5B5E5B"/>
  <path d="M136.688 108H140.062V114.75H136.688V108Z" fill="#5B5E5B"/>
  <path d="M143.438 108H146.812V114.75H143.438V108Z" fill="#5B5E5B"/>
  <path d="M106.312 67.5H109.688V77.625H106.312V67.5Z" fill="#5B5E5B"/>
  <path d="M121.5 67.5H124.875V77.625H121.5V67.5Z" fill="#5B5E5B"/>
  <path d="M91.125 67.5H94.5V77.625H91.125V67.5Z" fill="#5B5E5B"/>
</svg>